<?xml version="1.0" encoding="UTF-8"?>
<svg width="1200" height="630" viewBox="0 0 1200 630" fill="none" xmlns="http://www.w3.org/2000/svg">
  <defs>
    <linearGradient id="bg-gradient" x1="0" y1="0" x2="1200" y2="630" gradientUnits="userSpaceOnUse">
      <stop offset="0%" stop-color="#0B1120" />
      <stop offset="100%" stop-color="#0B1120" stop-opacity="1" />
    </linearGradient>
    <linearGradient id="accent-gradient" x1="0" y1="0" x2="1" y2="1">
      <stop offset="0%" stop-color="#6D5BFF" />
      <stop offset="30%" stop-color="#3B82F6" />
      <stop offset="100%" stop-color="#8B5CF6" />
    </linearGradient>
    <linearGradient id="glass-gradient" x1="0" y1="0" x2="1" y2="0">
      <stop offset="0%" stop-color="rgba(255,255,255,0.18)" />
      <stop offset="100%" stop-color="rgba(255,255,255,0.06)" />
    </linearGradient>
    <filter id="shadow" x="-50%" y="-50%" width="200%" height="200%">
      <feDropShadow dx="0" dy="18" stdDeviation="30" flood-color="#2B3B8F" flood-opacity="0.24" />
    </filter>
  </defs>

  <rect width="1200" height="630" fill="url(#bg-gradient)" />
  <g opacity="0.74">
    <path d="M-120 480C160 400 380 340 650 420C920 500 1080 600 1320 530V780H-120V480Z" fill="#161F39" />
    <path d="M1200 0L860 160L880 340L1200 260V0Z" fill="#111828" />
  </g>

  <g filter="url(#shadow)">
    <rect x="72" y="88" width="1060" height="440" rx="34" fill="rgba(255,255,255,0.04)" stroke="rgba(255,255,255,0.12)" />
  </g>

  <rect x="88" y="104" width="1024" height="408" rx="32" fill="url(#glass-gradient)" stroke="rgba(255,255,255,0.12)" />
  <rect x="118" y="144" width="180" height="180" rx="26" fill="rgba(59,130,246,0.15)" />
  <rect x="156" y="182" width="108" height="108" rx="20" fill="rgba(139,92,246,0.2)" />

  <circle cx="1000" cy="180" r="96" fill="rgba(56,189,248,0.18)" />
  <circle cx="1000" cy="180" r="52" fill="rgba(139,92,246,0.28)" />

  <rect x="134" y="384" width="220" height="118" rx="22" fill="rgba(255,255,255,0.08)" stroke="rgba(255,255,255,0.14)" />
  <rect x="188" y="408" width="148" height="16" rx="8" fill="rgba(255,255,255,0.18)" />
  <rect x="188" y="438" width="120" height="12" rx="6" fill="rgba(255,255,255,0.12)" />

  <path d="M916 118L1068 90L1078 162L946 190L916 118Z" fill="url(#accent-gradient)" opacity="0.9" />
  <path d="M890 482C924 448 980 430 1032 448C1090 468 1128 530 1086 562C1044 594 980 604 936 568C892 532 862 516 890 482Z" fill="url(#accent-gradient)" opacity="0.85" />

  <text x="108" y="220" font-family="Inter, Arial, sans-serif" font-size="62" font-weight="700" fill="#FFFFFF" letter-spacing="-2">
    Mudeti Ankitha
  </text>
  <text x="108" y="290" font-family="Inter, Arial, sans-serif" font-size="32" font-weight="500" fill="#A1A9C9" letter-spacing="0.08em">
    Java Full Stack Developer
  </text>

  <rect x="108" y="326" width="22" height="22" rx="6" fill="#3B82F6" />
  <text x="142" y="343" font-family="Inter, Arial, sans-serif" font-size="24" font-weight="500" fill="#E2E8F0">
    React • Spring Boot • Java • MySQL
  </text>

  <text x="108" y="394" font-family="Inter, Arial, sans-serif" font-size="20" font-weight="500" fill="#CBD5E1" opacity="0.88">
    Modern Premium Portfolio
  </text>

  <rect x="108" y="426" width="252" height="92" rx="26" fill="rgba(255,255,255,0.08)" stroke="rgba(255,255,255,0.14)" />
  <text x="138" y="470" font-family="Inter, Arial, sans-serif" font-size="18" font-weight="600" fill="#FFFFFF">
    Professional typography
  </text>
  <text x="138" y="500" font-family="Inter, Arial, sans-serif" font-size="16" font-weight="500" fill="#94A3B8">
    Rounded glass elements
  </text>
</svg>
